<svg xmlns="http://www.w3.org/2000/svg" width="1712" height="1712" preserveAspectRatio="xMidYMid meet" version="1.0" viewBox="0 0 1284 1284"><metadata>Created by potrace 1.11, written by Peter Selinger 2001-2013</metadata><g fill="#000" stroke="none"><path d="M294 12832 c-41 -13 -109 -63 -131 -96 -12 -18 -26 -51 -33 -72 -8 -29 -10 -1682 -8 -6264 3 -6026 4 -6226 21 -6262 24 -47 61 -84 112 -112 l40 -21 6125 0 c5948 0 6126 1 6162 19 47 23 91 68 115 115 17 35 18 292 18 6281 0 6048 -1 6246 -18 6282 -24 47 -61 84 -112 112 l-40 21 -6115 2 c-3363 0 -6125 -2 -6136 -5z" transform="translate(0.000000,1284.000000) scale(0.100000,-0.100000)"/></g></svg>